<svg xmlns="http://www.w3.org/2000/svg" xmlns:xlink="http://www.w3.org/1999/xlink" version="1.1" width="112.17337" height="59.50513" viewBox="0,0,112.17337,59.50513"><g transform="translate(-183.91332,-150.24744)"><g data-paper-data="{&quot;isPaintingLayer&quot;:true}" fill-rule="nonzero" stroke-linejoin="miter" stroke-miterlimit="10" stroke-dasharray="" stroke-dashoffset="0" style="mix-blend-mode: normal"><path d="" fill="#6f6f6f" stroke="none" stroke-width="0.5" stroke-linecap="butt"/><path d="M244.58669,185.8946h-13.26316h-22.73684" fill="none" stroke="#9e9e9e" stroke-width="25.5" stroke-linecap="round"/><path d="" fill="#ffd200" stroke="#000000" stroke-width="0.5" stroke-linecap="butt"/><path d="M227.85125,177.76471c4.03476,-0.20504 7.89413,-1.53303 11.88543,-1.99512c2.02077,-0.23395 4.09973,0.06289 6.14792,0.05304c3.34319,-0.80917 6.76393,-1.06165 10.23855,-1.11848c2.68415,-0.21418 5.38764,-0.26402 8.00639,0.051c0.53594,0.00484 1.07269,0.00789 1.61019,0.00788l0.00001,0.00001v-0.00001h0.00001v-0.00001h2c0.55228,0 1,0.44772 1,1c0,0.55228 -0.44771,1 -0.99999,1l-1.99999,0.00001c-0.31117,0.00001 -0.6222,-0.00116 -0.93307,-0.00322c-2.69716,0.68892 -6.7389,0.0032 -9.06694,0.0032c-2.80647,0 -5.0233,0.56507 -7.75705,0.92766c-0.60089,0.0797 -1.20647,0.11079 -1.81453,0.11483c-1.05011,0.26389 -2.09122,0.58686 -3.12213,0.98128c0.41453,0.04154 0.81582,0.1048 1.1956,0.19854c1.85651,0.45823 3.65777,1.47531 5.59857,1.7908c1.30117,0.21152 2.64492,-0.13429 3.95472,0.01473c3.91623,0.44556 8.00916,1.74101 11.82794,2.71356c3.35162,0.85357 6.57632,1.53182 9.60971,2.93579l0.07302,-0.23036l1.88476,0.59745c0.41578,0.12123 0.71957,0.50521 0.71957,0.96015c0,0.55038 -0.44464,0.99692 -0.9943,0.99998l-1.99913,0.01305c-2.75325,0.01795 -5.08222,-0.04728 -7.66869,0.96484c-8.10035,0.06554 -16.32864,0.40183 -24.19762,-0.97462c-2.47741,-0.43335 -5.237,0.76375 -7.67402,0.97336c-3.24901,0.27944 -7.04566,-0.01677 -10.13365,-0.9942c-0.22623,0.00109 -0.44915,-0.00226 -0.66923,-0.00953c1.42463,0.40841 2.80443,0.80245 4.18059,1.50717c2.58604,1.32427 4.07472,2.51896 7.06282,2.55087c4.35996,1.42042 9.48046,2.26397 13.64165,4.05355c3.94991,1.69872 8.53269,3.75899 12.80762,5.02507c1.91049,0.56582 4.06643,0.4411 5.94809,1.10166c1.34007,0.47043 2.51947,1.20103 3.61702,2.04662l0.04852,-0.09028l1.74356,0.93708c0.32339,0.16565 0.54471,0.50227 0.54471,0.89058c0,0.5137 -0.38737,0.93695 -0.88593,0.99356l-1.69527,-1.2432c0.20038,-1.32106 -2.68448,-0.12145 -4.00802,0.06181c-0.49355,0.06834 -0.9849,0.15698 -1.47456,0.26089c-0.49485,0.04724 -0.99062,0.09923 -1.48664,0.15586c-1.76492,-0.36955 -3.5126,-0.82483 -5.35585,-1.2556c-2.17082,-0.50732 -3.7846,-0.40013 -5.93117,-1.41509c-0.31454,-0.13277 -0.63167,-0.25779 -0.95106,-0.37589c-0.05624,0.30538 -0.25121,0.56218 -0.51714,0.7026l-1.73274,0.95799l-0.02104,-0.03805c-0.13797,0.06873 -0.28272,0.12406 -0.43596,0.16254c-0.79619,0.19995 -1.51529,-0.63271 -2.26275,-0.97211c-0.0955,-0.04336 -0.19086,-0.08777 -0.2861,-0.13308c-5.70057,-0.55555 -12.18241,-2.70037 -17.25092,-4.99897c-5.85158,-2.68817 -11.79807,-5.82251 -18.03948,-8.02766c-3.75731,-1.32749 -7.55863,-2.43124 -11.3235,-3.6537c1.87445,1.35065 3.5893,2.83966 5.64539,3.98219c2.83259,1.57402 5.9832,2.52637 8.91427,3.87384c3.67932,0.14695 6.17825,2.06511 9.40563,3.52722c6.04957,2.74067 12.35757,4.94092 18.34887,7.93514c1.42249,0.7109 3.53249,1.39634 5.19963,2.37512c-0.03892,-0.00601 -0.07737,-0.01219 -0.11536,-0.01852c-1.46674,-0.24445 -2.83529,-1.15395 -4.3215,-1.10653c-0.34142,0.0109 -0.67798,0.05038 -1.01094,0.11145c-1.49254,-0.57413 -2.98628,-1.24493 -4.38018,-1.68809c-2.35244,-0.7479 -4.84805,-0.93864 -7.28737,-1.31683c-0.20643,-0.032 -0.41279,-0.06901 -0.61906,-0.11054c-2.31886,-1.19573 -4.60156,-2.42828 -6.8147,-3.441c-3.76649,-1.34929 -7.34213,-3.1522 -11.04832,-4.63977c-4.83284,-1.93978 -10.20502,-3.36605 -15.2441,-5.35937c1.0934,1.16703 2.23447,2.3121 3.51262,3.13605c3.32589,2.14401 7.40801,2.85495 10.94948,4.55729c1.08033,0.5193 2.10281,1.11445 3.09343,1.75481c-0.05032,-0.00104 -0.10061,-0.00236 -0.15085,-0.00401c0,0 -1.30997,0 -2.88591,0.52199c-0.30316,-0.16299 -0.61064,-0.32003 -0.92314,-0.47024c-3.62361,-1.74182 -7.76822,-2.47274 -11.16951,-4.68071c-2.82962,-1.83686 -4.74665,-4.84636 -7.30573,-6.99647c-0.03497,-0.02938 -0.0698,-0.05867 -0.10451,-0.08787c-0.41328,-0.21952 -0.82172,-0.44623 -1.22473,-0.68085c3.11686,4.72429 7.84247,8.86511 12.94498,12.13391c-1.68187,-0.40823 -3.42733,-0.70941 -5.03008,-1.25517c-2.20575,-1.73986 -4.27285,-3.64011 -6.13855,-5.67514c-0.45048,-0.76257 -0.87763,-1.50453 -1.29842,-2.13572c0,0 -0.80985,-1.21477 -2.2592,-2.28158c-0.13843,-0.2012 -0.2749,-0.40457 -0.40911,-0.61c0.00829,-0.28678 -0.00171,-0.57195 -0.05262,-0.85365c-0.55729,-3.08401 -2.02235,-6.03824 -3,-9c-0.15609,-0.47287 -0.11109,-0.88696 0.0161,-1.2748c0.08614,0.03512 0.17166,0.06836 0.25666,0.09986c0.17209,-0.30068 0.49583,-0.50342 0.86697,-0.50398c0.00007,0 0.00013,0 0.0002,0l1.82434,-0.00281c0.12915,-0.09507 0.26337,-0.19641 0.403,-0.30512c-0.25497,-0.11499 -0.5082,-0.233 -0.75955,-0.35422l-0.05097,0.17701l-1.8952,-0.54577c0.13891,-0.36614 0.21007,-0.74716 0.10197,-1.17357c0.31822,-0.18093 0.5404,-0.48965 0.76791,-0.79507l1.38013,-0.00002c0,0 0,0 0.00001,0c1.70378,-0.00006 3.46162,-0.06012 5.23478,-0.19847c1.00037,-0.56944 2.0333,-1.08174 3.02116,-1.5745c2.4259,-1.21008 4.35717,-3.27853 7.07014,-4.01546c1.88726,-0.51264 4.31711,-0.20077 6.25684,-0.20471c0.30198,-0.00061 0.60397,-0.00117 0.90595,-0.00168c3.24771,-2.08705 6.75061,-3.94739 10.07215,-5.92501c1.89363,-0.7394 3.94279,-1.81624 5.98722,-2.05321c2.34393,-0.27169 4.01564,0.5835 6.16216,1.04867c1.41177,0.30595 2.82388,0.57195 4.23486,0.83652c1.18527,-0.12556 2.41051,0.0644 3.57379,-0.19862c6.37905,-1.44231 13.6165,-2.60208 20.0726,-0.72326l0.03251,-0.2448l1.96881,0.26146c0.49674,0.05832 0.88214,0.48072 0.88214,0.99313c0,0.55228 -0.44771,0.99999 -0.99998,1l-2,0.00004c-4.25751,0.00013 -9.61418,-0.85191 -13.75872,0.17809c-0.58014,0.14418 -1.15453,0.31332 -1.72593,0.49743c0.48142,0.13703 0.96237,0.28255 1.44281,0.43811c2.47686,0.80202 4.88042,2.31884 7.36161,2.97835c1.77529,0.47187 2.7578,0.47022 3.88985,0.77934l0.10939,-0.38182l1.90138,0.54473c0.4292,0.11244 0.74586,0.50295 0.74586,0.96742c0,0.5513 -0.44613,0.99841 -0.99706,1l-1.99454,0.00672c-5.36785,0.09008 -10.60353,1.00267 -15.93985,0.98594c-6.69632,-0.02099 -13.29119,-0.99437 -19.92496,-0.99432c-0.96763,0.00002 -1.93525,-0.00005 -2.90288,-0.00005c-2.12448,0.69091 -4.16354,1.56881 -6.55659,2.02236c-1.77723,0.33683 -3.52896,0.61796 -5.26873,0.89657c-2.98225,1.20772 -6.26647,1.98815 -9.58596,2.46135c-0.70772,0.45083 -1.4218,0.78716 -2.13767,1.09122c4.87181,-0.60108 9.62859,-1.49383 14.67819,-1.44228c2.27939,0.07898 3.90001,0.54388 6.05371,1.05855c2.72212,0.65051 5.48578,1.1154 8.24479,1.59919c0.97928,-0.08328 1.93613,-0.20875 3.0997,-0.68524zM237.99648,181.84826c3.2038,1.32977 6.35029,2.02705 9.31835,3.5083l0.0939,-0.25579l1.8556,0.68116c0.39394,0.13423 0.6773,0.50742 0.6773,0.94679c0,0.3086 -0.13978,0.58454 -0.35949,0.76798c5.70719,0.39718 11.49958,0.22743 17.29097,0.28402c1.01103,-0.40504 2.00246,-0.64404 2.99863,-0.7857c-1.75793,-0.5583 -3.47718,-1.23017 -4.74252,-1.55249c-3.73052,-0.95027 -7.73553,-2.22933 -11.56038,-2.6645c-1.04437,-0.11882 -3.04288,0.13152 -4.04517,-0.02712c-2.00302,-0.31702 -3.86309,-1.33443 -5.77063,-1.82619c-1.6276,-0.41959 -3.80013,-0.14997 -5.51855,-0.15202c-0.57286,0.18052 -1.15633,0.34155 -1.74707,0.48974c0.50572,0.1834 1.00884,0.3782 1.50906,0.58583zM221.10118,189.90553c2.88351,1.7301 5.86061,2.95831 8.8449,4.47629c0.5075,0.25814 1.00918,0.52863 1.50796,0.80421c0.22509,0.10691 0.44904,0.21531 0.67174,0.32528c0.39115,0.19314 0.75981,0.42444 1.11597,0.67616c1.75812,0.98332 3.52354,1.92161 5.42571,2.49249c4.99148,1.49806 10.51345,1.75095 15.47904,3.81497c2.10484,1.00818 3.40796,0.79405 5.56765,1.2929c3.24358,0.7492 6.1599,1.60498 9.44213,1.88182c-0.46928,-0.28385 -0.97139,-0.5816 -1.6047,-0.80392c-1.20935,-0.42454 -2.52352,-0.45054 -3.78371,-0.68433c-4.99326,-0.92633 -10.58691,-3.50626 -15.10713,-5.49542c-3.98783,-1.75488 -8.98094,-2.4929 -13.17354,-3.91495c-3.90643,-0.04024 -5.77166,-2.54072 -9.26605,-3.58236c-1.26933,-0.37838 -2.57909,-0.61475 -3.8421,-1.01375c-0.31825,-0.10054 -0.79529,-0.18554 -1.32058,-0.29227c0.02754,0.01377 0.04271,0.02288 0.04271,0.02288zM242.23403,165.63694c-1.42745,0.51065 -2.8705,0.99033 -4.37231,1.28227c-3.82204,0.74299 -7.43886,0.96711 -11.07468,2.00564c6.40156,0.41238 12.82384,1.42987 19.27705,0.84211c2.03644,-0.18548 4.02724,-0.41915 6.02536,-0.61422c-1.99319,-0.79056 -3.94674,-1.82809 -5.63055,-2.37332c-1.40512,-0.45498 -2.81365,-0.82242 -4.22487,-1.14249zM210.45966,180.75427c2.51218,-0.27292 5.36092,0.29829 7.81872,-0.40423c0.7998,-0.22861 1.52883,-0.6704 2.27964,-1.04011c-3.36995,-0.76437 -6.78471,-1.40413 -10.14943,-1.51821c-3.88774,-0.03943 -7.60619,0.48577 -11.34109,1.00385c0.40513,0.1596 0.78913,0.29792 1.14632,0.40554c2.26974,0.68386 4.56316,1.41663 6.87613,2.11843c1.12624,-0.21462 2.25303,-0.44395 3.36971,-0.56526zM214.96075,168.764c0.05705,-0.00003 0.11411,-0.00007 0.17116,-0.0001c2.9169,-0.62911 5.86772,-1.1218 8.89062,-1.31549c2.80012,-1.43588 5.75999,-2.74083 8.8165,-3.67479c-1.90754,-0.42611 -3.32536,-1.23612 -5.42028,-0.99681c-1.80947,0.20671 -3.66002,1.21492 -5.33773,1.86318c-2.33225,1.39981 -4.75925,2.72915 -7.12028,4.12401zM225.23371,184.76073c4.99538,0.91349 10.01102,0.20964 15.05117,0.21876c-1.81786,-0.80481 -3.53954,-1.68149 -4.81394,-2.16283c-0.81916,-0.3094 -1.6664,-0.56087 -2.52878,-0.77785c-3.02749,0.61665 -6.07251,1.2405 -8.71985,2.70143c0.33694,0.0114 0.67408,0.0183 1.01139,0.02048zM219.72919,190.24851c0.21508,-0.35846 0.4901,-0.47717 0.73736,-0.49392c-1.10283,-0.25799 -2.23716,-0.66052 -2.49122,-1.51501c-0.04098,-0.13784 -0.05908,-0.27701 -0.05819,-0.4166c-0.17419,-0.02425 -0.34994,-0.04734 -0.5275,-0.06898c-1.94225,-0.23668 -3.92929,-0.01837 -5.89503,-0.13113c1.20486,0.56057 2.42289,1.10336 3.66163,1.61845c1.4496,0.49277 2.9269,0.97378 4.41259,1.46149c0.01347,-0.13801 0.06168,-0.28984 0.16035,-0.45429zM195.72855,187.61061c-1.22938,0.02343 -2.37358,-0.03427 -3.53056,-0.17244c0.16712,0.08999 0.34033,0.17848 0.52151,0.26352c2.41185,1.13201 4.90933,2.07878 7.32251,3.2231c1.37306,0.6511 2.78862,1.18779 4.22253,1.67552c-1.88786,-1.08371 -3.76086,-2.25439 -5.68367,-3.56394c-0.88874,-0.60528 -1.85933,-1.03785 -2.85231,-1.42577zM222.78801,183.25745c1.40986,-0.82935 3.07541,-1.49714 4.80791,-2.07278c-3.52521,0.67896 -7.10241,1.68139 -10.58114,2.70174c1.23832,0.23831 2.48042,0.43698 3.7257,0.58446c0.92154,-0.55076 1.91974,-1.13824 2.04754,-1.21342zM221.28558,193.38165c3.17776,1.47446 6.30288,3.02029 9.41606,4.4241c1.00793,0.46109 2.07837,0.91642 3.19087,1.35321c-0.50609,-0.40466 -1.00683,-0.81917 -1.53842,-1.18944c-0.57061,-0.31684 -1.14051,-0.63781 -1.71368,-0.95308c-2.98421,-1.40942 -6.16388,-2.56014 -9.35482,-3.63479zM200.79132,185.11348c-3.38108,-0.97783 -6.75942,-2.13712 -9.88474,-3.63067c0.39797,0.3995 0.88301,0.77897 1.15066,1.23094c2.29973,0.94759 4.62611,1.78508 6.96478,2.57367c0.58489,-0.06286 1.17559,-0.11949 1.76931,-0.17394zM226.0196,186.91371c2.86375,0.81308 6.2354,1.09277 9.18473,0.83771c1.39196,-0.12038 2.82722,-0.49753 4.2683,-0.76568c-4.50186,0.04497 -8.98598,0.58112 -13.45303,-0.07203zM199.02208,180.86278l0.26698,0.12913c1.22535,0.6144 2.48459,0.82691 3.76151,0.8246c-2.86835,-0.79684 -5.83277,-1.51583 -8.71361,-2.41405c-0.44099,0.04795 -0.88327,0.09253 -1.32713,0.13285c1.08135,0.41375 2.18245,0.93328 3.23804,1.44814c0.51573,0.04958 1.03433,0.08672 1.53751,0.1725c0.45937,-0.66911 1.2367,-0.29316 1.2367,-0.29316zM203.90162,183.89437c0.96881,0.23169 1.93143,0.42325 2.89304,0.58696c1.044,-0.15396 2.06726,-0.34486 3.0536,-0.59606c-0.73317,-0.2259 -1.46771,-0.45622 -2.20527,-0.68738c-1.3756,0.23682 -2.72474,0.47027 -4.07015,0.53225c0.10962,0.05471 0.21922,0.10945 0.32879,0.16423zM239.89431,177.9889c0.19295,-0.09628 0.38622,-0.18981 0.57981,-0.28066c-0.16951,0.01268 -0.33866,0.02856 -0.50742,0.04809c-1.68502,0.19508 -3.34864,0.55555 -5.01281,0.91576c0.76105,0.03286 1.517,0.0696 2.25414,0.08749c0.86607,-0.11548 1.72205,-0.2854 2.68628,-0.77068zM189.15711,184.87033c0.42441,0.09412 0.83474,0.17996 1.23564,0.25718c-1.14472,-0.85089 -1.99263,-1.85673 -2.91908,-2.97236c0.30141,0.5067 0.5696,1.03561 0.82201,1.57509c0.27998,0.38628 0.55942,0.77075 0.86143,1.14008zM203.77457,186.83771c1.39088,0.44441 2.78266,0.88618 4.17235,1.33801c-0.99797,-0.48042 -1.9905,-0.96856 -2.9811,-1.46072c-0.39614,0.04327 -0.79347,0.0838 -1.19125,0.12271zM206.80893,170.6544c-0.81934,-0.00029 -1.61717,0.05608 -2.31212,0.24893c-0.62569,0.17362 -1.20998,0.42612 -1.76954,0.72544c1.33991,-0.3513 2.70673,-0.66736 4.08166,-0.97437zM215.87117,185.56707c-0.81413,-0.19282 -1.62438,-0.40296 -2.433,-0.62561c-0.3159,0.09275 -0.6305,0.18474 -0.94367,0.27573c1.11117,0.11546 2.23419,0.22609 3.37667,0.34989zM212.99005,182.98337c0.35606,-0.10513 0.71379,-0.21112 1.07302,-0.31762c-0.76924,-0.0116 -1.53673,-0.02646 -2.29062,0.00089c0.40537,0.10826 0.81124,0.21398 1.2176,0.31674zM238.16249,164.8105c-0.11272,-0.02119 -0.22546,-0.04232 -0.3382,-0.06342c-0.68099,0.15842 -1.35949,0.32649 -2.03499,0.50456c0.56099,-0.08965 1.125,-0.18676 1.69249,-0.29601c0.22823,-0.04394 0.45508,-0.09252 0.68071,-0.14513zM247.51005,202.65449c0.1467,0.01317 0.29278,0.0252 0.43819,0.03606c-0.20246,-0.04436 -0.40522,-0.08759 -0.6082,-0.12987c0.05663,0.03138 0.1133,0.06266 0.17002,0.09381zM224.70043,186.74922c0.13873,0.00686 0.27863,0.01237 0.41982,0.01639c-0.02455,-0.00451 -0.04911,-0.00906 -0.07366,-0.01365c-0.1156,-0.0003 -0.23098,-0.00122 -0.34616,-0.00274z" fill="#ff9400" stroke="none" stroke-width="0.5" stroke-linecap="butt"/><path d="M192.9584,170.97245c0.05859,0.177 0.11866,0.35299 0.18014,0.52802c3.72882,-2.17346 7.56029,-4.17404 11.32942,-5.97317c3.17698,-1.51648 6.89458,-2.43965 10.02036,-4.01007c0.73972,-0.37164 1.45899,-0.81621 2.18041,-1.25632c-0.86096,-0.00019 -1.72192,-0.00033 -2.58289,-0.00038l-0.0825,-0.24751l1.14271,-0.85703l1.44833,0.16336c0.05167,-0.13326 0.09186,-0.27554 0.12659,-0.42211c2.19437,-0.20398 4.37437,-0.66253 6.47459,-1.30759l2.81952,-0.93984c0.12727,-0.03915 0.25324,-0.08128 0.37781,-0.12634l-0.27221,1.77041c0.07328,-0.00527 0.14651,-0.01147 0.21967,-0.01869c3.31435,-0.32692 6.514,-1.4642 9.82701,-1.80438c2.95305,-0.30321 5.94917,-0.43257 8.83271,-1.13799l1.58663,-0.0698c0,0 2.5,0 2.5,2.5c0,2.5 -2.5,2.5 -2.5,2.5l-0.41337,-0.0698c-7.86775,1.87649 -16.19044,2.18967 -24.18617,3.03752c-2.86585,0.30389 -5.79411,2.84333 -8.512,3.86909c-4.52267,1.70689 -8.43624,4.02702 -12.63404,6.30566c11.37775,-0.5609 22.7368,-1.17838 34.14605,-1.11019l3.39011,1.09601c0,0 2.37171,0.79057 1.58114,3.16228c-0.79057,2.37171 -3.16228,1.58114 -3.16228,1.58114l-2.60989,-0.90399c-12.63988,0.08871 -25.21687,0.86017 -37.82913,1.42643c0.49374,0.98479 0.98913,1.97516 1.46566,2.98781c0.49967,1.06183 0.59421,2.37808 1.40194,3.2294c0.5079,0.53531 1.44466,0.30862 2.15257,0.51693c2.49331,0.73368 5.007,1.42614 7.56367,1.89337c8.05403,1.47187 15.44733,2.97811 23.64203,2.97834h3.00373c1.38071,0 2.5,1.11929 2.5,2.5c0,1.38071 -1.11929,2.5 -2.5,2.5h-4c0,0 -0.06077,0 -0.16336,-0.00947c-8.04353,-0.13032 -15.42571,-1.58394 -23.38507,-3.05102c-0.7625,-0.14054 -1.92244,-0.32237 -3.23714,-0.56131c0.57179,0.28679 1.15156,0.55928 1.74229,0.81211c6.53494,2.797 13.52123,4.80272 20.32671,6.79757c1.43272,0.41996 2.80302,1.07121 4.21677,1.54899c-0.00012,-0.01223 -0.00018,-0.02451 -0.00018,-0.03686c0,-2.5 2.5,-2.5 2.5,-2.5c8.78828,0.00876 17.88337,-2.61011 26.49515,-0.95048l0.50485,-0.04952c0,0 2.5,0 2.5,2.5c0,2.5 -2.5,2.5 -2.5,2.5l-1.49515,-0.04952c-2.70514,-0.57822 -5.54444,-0.2168 -8.29865,0.04101c-1.86773,0.17483 -3.75644,0.34348 -5.65331,0.4912c-0.02343,1.0234 -0.78512,1.78508 -0.78512,1.78508l-2.76777,1.73223c-1.65842,0 -3.49004,0.14139 -5.29281,0.18125c-1.77295,-0.37038 -3.59453,-0.54702 -5.38575,-0.82474c-0.69357,-0.10754 -1.38634,-0.27152 -2.07791,-0.47365c-0.47925,-0.15609 -0.9589,-0.31244 -1.40023,-0.4563c-2.79293,-0.99307 -5.5623,-2.408 -8.28323,-3.02772c-0.74908,-0.17061 -1.51711,-0.19418 -2.28975,-0.18212c-4.14895,-1.29464 -8.27014,-2.70918 -12.22703,-4.40703c-4.02896,-1.72877 -7.54492,-4.31522 -11.48083,-6.19802c-1.15043,-0.55033 -2.32167,-1.0561 -3.49542,-1.55634c0.75243,1.03486 1.46366,2.09117 2.09523,3.18985c0.16718,0.29082 0.31709,0.59111 0.45881,0.89585c-0.25679,-0.43208 -0.50784,-0.84406 -0.75667,-1.21731c0,0 -0.96886,-1.45329 -2.68368,-2.57669c0.02544,-0.39283 0.03219,-0.78392 -0.03732,-1.16856c-0.35778,-1.97995 -1.08972,-3.90641 -1.82663,-5.81571c2.39849,1.18465 4.90524,2.13933 7.34192,3.24413c-0.28892,-0.67114 -0.56183,-1.35372 -0.89482,-1.98888c-0.86595,-1.65176 -1.71641,-3.29457 -2.5109,-4.95947c-1.45001,0.87049 -2.88073,1.78615 -4.29239,2.77949c-0.28861,-0.75421 -0.56864,-1.50664 -0.81717,-2.25956c-0.50958,-1.54375 1.12408,-2.46116 0.76352,-3.88341c0.55392,-0.31493 0.81683,-1.0171 1.32341,-1.41501c0.0719,-0.05648 0.1438,-0.11304 0.21572,-0.1697c0.22529,-0.00818 0.45056,-0.01649 0.67582,-0.02493c-0.04882,-0.13122 -0.09709,-0.26274 -0.1448,-0.39458c1.348,-1.06732 2.70352,-2.15431 4.09245,-3.1816c0.21162,0.32867 0.30213,0.60017 0.30213,0.60017z" fill="#ffd200" stroke="none" stroke-width="0.5" stroke-linecap="butt"/><path d="M251.70026,209.26559c0.18238,0.00905 0.36471,0.01865 0.547,0.02879c-1.05423,0.21455 -2.13591,0.38739 -3.22054,0.45818c-0.40249,-0.03267 -0.77946,-0.0765 -1.11854,-0.13301c-0.63086,-0.10514 -1.24356,-0.33331 -1.85527,-0.55546c1.87512,0.04503 3.75681,0.10766 5.64735,0.2015z" fill="#ffd200" stroke="none" stroke-width="0.5" stroke-linecap="butt"/><path d="M195.81709,198.38295c-0.12956,-0.10502 -0.25655,-0.21715 -0.38112,-0.33555c0.32926,0.26727 0.67676,0.53894 1.0224,0.80293c-0.22042,-0.14442 -0.43445,-0.29974 -0.64128,-0.46738z" fill="#ffd200" stroke="none" stroke-width="0.5" stroke-linecap="butt"/><path d="M293.08668,180.76301c0,2.5 -2.5,2.5 -2.5,2.5h-2c-14.35716,0 -28.65282,-1.58877 -42.60634,-5.07464c0,0 -2.42536,-0.60634 -1.81902,-3.0317c0.60634,-2.42536 3.0317,-1.81902 3.0317,-1.81902c13.55603,3.39152 27.44572,4.92536 41.39366,4.92536h2c0,0 2.5,0 2.5,2.5z" fill="#ffd200" stroke="none" stroke-width="0.5" stroke-linecap="butt"/><path d="M296.08668,190.76218c0.00084,2.5 -2.49916,2.50084 -2.49916,2.50084l-1.08845,0.00035c-3.23878,0.00437 -6.45103,0.59587 -9.66605,0.98748c-4.27064,0.5202 -8.95007,0.01217 -13.24634,0.01217c0,0 -2.5,0 -2.5,-2.5c0,-2.5 2.5,-2.5 2.5,-2.5c4.11883,0 8.66323,0.5296 12.75366,0.01217c3.36983,-0.42628 6.74307,-0.99125 10.13969,-1.01178l1.10581,-0.00039c0,0 2.5,-0.00084 2.50084,2.49916z" fill="#ffd200" stroke="none" stroke-width="0.5" stroke-linecap="butt"/><path d="M257.58668,164.26302c0,0 -2.5,0 -2.5,-2.5c0,-2.5 2.5,-2.5 2.5,-2.5c4.61648,0 9.27283,-0.14334 13.91139,-0.13196c-0.10585,0.52753 -0.16139,1.07326 -0.16139,1.63196c0,1.19985 0.25614,2.33988 0.71672,3.36839c-4.82163,-0.02785 -9.66637,0.13161 -14.46672,0.13161z" fill="#ffd200" stroke="none" stroke-width="0.5" stroke-linecap="butt"/><path d="" fill="#ffd200" stroke="none" stroke-width="0.5" stroke-linecap="butt"/><path d="M198.70471,191.99908c-2.23607,1.11803 -3.3541,-1.11804 -3.3541,-1.11804l-1.13564,-2.32746c-0.27366,-0.821 -2.1265,-6.27248 -2.12829,-6.78586c-0.01019,-2.91282 1.47997,-5.63819 2.04855,-8.495c0,0 0.42292,-2.11462 2.44715,-2.02311c0.40448,-0.48178 0.88627,-0.72267 0.88627,-0.72267c5.62696,-2.80561 10.26242,-6.63715 16.47636,-8.18018c4.32512,-1.074 8.95322,-1.45387 13.33621,-2.06502c4.03936,-0.56323 7.5845,0.47093 11.51489,-0.89044l1.79057,-0.12829c0,0 2.5,0 2.5,2.5c0,2.5 -2.5,2.5 -2.5,2.5l-0.20943,-0.12829c-4.36892,1.41245 -8.09894,0.46656 -12.48511,1.10956c-4.16859,0.6111 -8.55499,0.89445 -12.66379,1.93498c-5.82108,1.47416 -10.2216,5.16188 -15.52364,7.81982c0,0 -0.35724,0.17862 -0.85753,0.25028c-0.23307,1.26125 -0.4447,2.52743 -0.75213,3.77156c4.17213,-0.59692 8.56614,-1.16837 12.72229,-0.74725c4.3358,0.43932 8.59331,1.49419 12.92448,1.98268c3.15476,0.35581 6.65936,0.00666 9.84486,0.00666h1c0,0 2.5,0 2.5,2.5c0,2.5 -2.5,2.5 -2.5,2.5h-1c-3.35996,0 -7.02307,0.33214 -10.34934,-0.03217c-4.32153,-0.47333 -8.55896,-1.5188 -12.88133,-1.97849c-4.12608,-0.43881 -8.57922,0.2785 -12.68458,0.87945c0.41911,0.94657 0.96436,1.87285 1.28696,2.84064l0.86436,1.67254c0,0 1.11804,2.23607 -1.11803,3.35411z" fill="#ff4a00" stroke="none" stroke-width="0.5" stroke-linecap="butt"/><path d="M237.08667,201.76301c0,2.5 -2.5,2.5 -2.5,2.5l-1.79057,-0.12829c-3.6768,-1.27354 -7.33368,-0.87171 -11.20943,-0.87171c-3.75012,0 -6.62524,-0.47929 -10.30546,-1.01873c-2.01019,-0.29465 -4.0908,0.31946 -6.095,-0.01355c-6.03966,-1.00352 -12.00397,-5.07528 -16.98629,-8.38759c0,0 -0.31001,-0.20667 -0.61089,-0.58013c-0.00079,0 -0.00158,0 -0.00236,0c-2.5,0 -2.5,-2.5 -2.5,-2.5c0,-1.86655 0.35015,-3.76026 0.03228,-5.59954c-0.57117,-3.30496 -1.65959,-6.28804 -1,-9.80091c0.72389,-3.8553 3.82186,-7.68236 7.15339,-9.72617c0.96749,-0.59353 2.19665,-0.61982 3.21595,-1.11916c1.84402,-0.90336 3.01815,-2.83297 4.78405,-3.88084c1.07133,-0.63572 2.34917,-0.83005 3.52376,-1.24508l2.79057,-0.12829c0,0 2.5,0 2.5,2.5c0,2.5 -2.5,2.5 -2.5,2.5l-1.20943,-0.12829c-3.36035,1.02445 -4.46972,3.23307 -7.69219,4.87408c-3.00826,1.53193 -7.08496,3.07414 -7.63066,7.15467c-0.41236,3.08349 0.5308,5.28991 1,8.19909c0.00992,0.06149 0.01695,0.42746 0.0219,0.95629c0.18671,0.03437 0.30095,0.07246 0.30095,0.07246c2.33638,0.78368 4.41575,2.25659 6.78381,2.93859c0.20571,0.05924 0.41584,0.08075 0.62866,0.08068c-0.33435,-0.07915 -0.66585,-0.16988 -0.99361,-0.27585c0,0 -2.37171,-0.79057 -1.58114,-3.16228c0.79057,-2.37171 3.16228,-1.58114 3.16228,-1.58114c1.77266,0.614 3.70924,0.56706 5.55618,0.89587c6.40787,1.1408 12.47116,4.01977 18.9531,4.99388c5.87163,0.88239 11.41267,-0.3904 17.30648,1.0566l0.39366,-0.07464c0,0 2.5,0 2.5,2.5c0,0.30236 -0.03657,0.56814 -0.10086,0.80179c0.98374,0.32505 1.97605,0.60634 3.00131,0.7305c1.65458,0.20036 3.3462,-0.20672 5,0c1.04595,0.13074 1.96025,0.82671 3,1c0.98639,0.1644 2.01461,-0.1703 3,0c0.9111,0.15746 1.67512,0.94926 2.59954,0.96772c2.1843,0.04361 6.10941,-2.1717 8.20943,-2.87171l3,-1c0,0 2.37171,-0.79057 3.16228,1.58114c0.79057,2.37171 -1.58114,3.16228 -1.58114,3.16228l-3,1c-2.7494,0.91647 -6.92428,3.09002 -9.79057,3.12829c-1.18446,0.01581 -2.231,-0.84367 -3.40046,-1.03228c-0.98724,-0.15922 -2.01361,0.1644 -3,0c-1.03975,-0.17329 -1.95405,-0.86926 -3,-1c-1.6538,-0.20672 -3.34695,0.21263 -5,0c-2.47618,-0.3185 -4.78357,-1.43796 -7.20588,-2.04236c0,0 -2.08062,-0.52016 -1.90591,-2.52401c-4.60075,-0.52093 -9.10797,0.25936 -13.7876,-0.41939c-5.91951,-0.85859 -11.48464,-3.36179 -17.26989,-4.65225c1.75726,0.58794 3.49427,1.24629 5.26871,1.77c1.5011,0.44304 3.12948,0.53173 4.53278,1.2248c0.75943,0.37507 0.93768,1.5534 1.72496,1.8658c0.85792,0.34044 1.89283,-0.37705 2.76775,-0.08303c3.86482,1.29878 4.0823,2.9448 8.27554,2.89273h1c0,0 1.66336,0 2.27652,1.35678c1.16836,0.14943 2.33891,0.39159 3.51405,0.77151l0.20943,-0.12829c0,0 2.5,0 2.5,2.5zM205.98713,197.29529c1.94135,0.32485 3.95553,-0.2854 5.905,-0.01355c0.4006,0.05586 0.79407,0.14819 1.18459,0.25577c-0.21164,-0.24203 -0.44193,-0.4572 -0.72179,-0.599c-1.05642,-0.53525 -2.32534,-0.46116 -3.46722,-0.7752c-3.20844,-0.88238 -6.2821,-2.45138 -9.60649,-2.91903c-0.91733,-0.12904 -1.87968,0.14152 -2.79161,0.04279c3.0325,1.84433 6.28683,3.47097 9.49752,4.00823z" fill="#ff4a00" stroke="none" stroke-width="0.5" stroke-linecap="butt"/><path d="M250.82274,151.64498c1.11803,2.23607 -1.11803,3.3541 -1.11803,3.3541l-3.11803,1.26393c-3.37598,0 -7.3433,-0.4446 -10.69454,-0.01873c-6.78601,0.86235 -13.38292,3.00034 -20.30546,3.01873c0,0 -2.5,0 -2.5,-2.5c0,-2.5 2.5,-2.5 2.5,-2.5c6.70095,0.02043 13.12001,-2.17167 19.69454,-2.98127c3.56231,-0.43867 7.70979,-0.01873 11.30546,-0.01873l0.88197,-0.73607c0,0 2.23607,-1.11803 3.3541,1.11803z" fill="#ff4a00" stroke="none" stroke-width="0.5" stroke-linecap="butt"/><path d="M263.08667,168.76301c0,2.5 -2.5,2.5 -2.5,2.5h-1c-5.15823,0 -10.73183,-0.64405 -15.84295,0.00647c-3.37462,0.42951 -6.75521,0.98564 -10.15705,0.99353c0,0 -2.5,0 -2.5,-2.5c0,-2.5 2.5,-2.5 2.5,-2.5c3.23238,0.00827 6.4405,-0.57347 9.64876,-0.96763c5.29397,-0.6504 11.01442,-0.03237 16.35124,-0.03237h1c0,0 2.5,0 2.5,2.5z" fill="#ff4a00" stroke="none" stroke-width="0.5" stroke-linecap="butt"/><path d="M283.95838,176.97244c0.79057,2.37171 -1.58114,3.16228 -1.58114,3.16228l-3.39011,1.09601c-9.93038,0.09458 -19.53797,2.03228 -29.40046,2.03228c0,0 -2.5,0 -2.5,-2.5c0,-2.5 2.5,-2.5 2.5,-2.5c9.61128,0 18.90791,-2.08704 28.59954,-1.96772l2.60989,-0.90399c0,0 2.37171,-0.79057 3.16228,1.58114z" fill="#ff4a00" stroke="none" stroke-width="0.5" stroke-linecap="butt"/><path d="M289.08667,168.76301c0,2.5 -2.5,2.5 -2.5,2.5c-2.33333,0 -7.66667,0 -10,0c0,0 -2.5,0 -2.5,-2.5c0,-2.5 2.5,-2.5 2.5,-2.5c2.33333,0 4.66667,0 7,0h3c0,0 2.5,0 2.5,2.5z" fill="#ff4a00" stroke="none" stroke-width="0.5" stroke-linecap="butt"/></g></g></svg>